<?xml version="1.0" encoding="utf-8"?>
<!-- Generator: Adobe Illustrator 22.1.0, SVG Export Plug-In . SVG Version: 6.00 Build 0)  -->
<svg version="1.1" id="Layer_1" xmlns="http://www.w3.org/2000/svg" xmlns:xlink="http://www.w3.org/1999/xlink" x="0px" y="0px"
	 viewBox="0 0 1000 929" style="enable-background:new 0 0 1000 929;" xml:space="preserve">
<g id="Layer_5" style="display:none;">
</g>
<g id="Capa_3" style="opacity:0.5;">
	<g>
		<g>
			<path d="M346.9,586.4c-0.3,0.1-0.6,0.1-0.8,0.1c-39.2,0.8-61.8-23.4-62.8-24.4c-0.8-0.8-1.1-2-0.8-3.1c0.3-1.4,7.7-33.7,42-52.6
				c0.9-0.5,2.1-0.6,3.1-0.2s1.7,1.3,2,2.3l19.8,73.6c0.3,1,0.1,2.1-0.6,3C348.3,585.7,347.7,586.2,346.9,586.4z M289.8,558.6
				c4.9,4.6,23.3,19.9,51.6,20.8L324,514.7C299.9,529.8,291.7,552.2,289.8,558.6z"/>
		</g>
		<g>
			<path d="M429.2,524.7L337,549.6c-1.9,0.5-3.8-0.6-4.3-2.5s0.6-3.8,2.5-4.3l92.2-24.8c1.9-0.5,3.8,0.6,4.3,2.5
				C432.1,522.3,431,524.2,429.2,524.7z"/>
		</g>
		<g>
			<path d="M473.6,550.3c-0.5,0.1-1,0.2-1.5,0.1c-1.7-0.3-41.6-6.9-47.3-28.1c-5.7-21.3,25.4-47,26.8-48.1c1.1-0.9,2.7-1,4-0.3
				s1.9,2.2,1.7,3.6l-6.5,37.8l24.6,29.4c0.9,1.1,1.1,2.7,0.4,4C475.3,549.5,474.5,550.1,473.6,550.3z M448.7,486.4
				c-9,9.1-19.9,23.3-17,34c2.9,10.7,19.5,17.5,31.8,20.9l-19-22.8c-0.7-0.8-0.9-1.8-0.8-2.8L448.7,486.4z"/>
		</g>
		<g>
			<path d="M317.8,551.7c-4.8,1.3-9.7-1.6-11-6.3s1.6-9.7,6.3-11c4.8-1.3,9.7,1.6,11,6.3S322.6,550.4,317.8,551.7z M314.9,541.1
				c-1.1,0.3-1.7,1.4-1.4,2.4c0.3,1.1,1.4,1.7,2.4,1.4c1.1-0.3,1.7-1.4,1.4-2.4C317.1,541.4,316,540.8,314.9,541.1z"/>
		</g>
		<g>
			<path d="M365.4,579.5c-1.9,0.5-3.8-0.6-4.3-2.5l-18.9-70.1c-0.5-1.9,0.6-3.8,2.5-4.3s3.8,0.6,4.3,2.5l18.9,70.1
				C368.4,577.1,367.3,579,365.4,579.5z"/>
		</g>
		<g>
			<path d="M382.5,567.3c-1.9,0.5-3.8-0.6-4.3-2.5l-15.1-56c-0.5-1.9,0.6-3.8,2.5-4.3s3.8,0.6,4.3,2.5l15.1,56
				C385.5,564.9,384.4,566.8,382.5,567.3z"/>
		</g>
		<g>
			<path d="M399.6,555c-1.9,0.5-3.8-0.6-4.3-2.5L384.1,511c-0.5-1.9,0.6-3.8,2.5-4.3s3.8,0.6,4.3,2.5l11.2,41.6
				C402.6,552.6,401.4,554.5,399.6,555z"/>
		</g>
		<g>
			<path d="M415.8,539.6c-1.9,0.5-3.8-0.6-4.3-2.5l-5.7-21.1c-0.5-1.9,0.6-3.8,2.5-4.3s3.8,0.6,4.3,2.5l5.7,21.1
				C418.8,537.2,417.7,539.1,415.8,539.6z"/>
		</g>
	</g>
	<g>
		<g>
			<path d="M621.8,587c-11.7,0-22.7-0.8-31-2.3c-10.9-1.9-15.5-4.5-15.5-8.8V445.8c0-1.9,1.6-3.5,3.5-3.5h86c1.9,0,3.5,1.6,3.5,3.5
				V576c0,4.2-4.6,6.9-15.5,8.8C644.5,586.2,633.5,587,621.8,587z M582.3,575.1c2.9,1.9,16.2,4.9,39.5,4.9s36.6-3,39.5-4.9V449.3
				h-79V575.1z"/>
		</g>
		<g>
			<ellipse style="fill:#FFFFFF;" cx="621.8" cy="445.8" rx="43" ry="7.5"/>
			<path d="M621.8,456.9c-11.7,0-22.7-0.8-31-2.3c-10.9-1.9-15.5-4.5-15.5-8.8c0-4.2,4.6-6.9,15.5-8.8c8.3-1.5,19.3-2.3,31-2.3
				s22.7,0.8,31,2.3c10.9,1.9,15.5,4.5,15.5,8.8c0,4.2-4.6,6.9-15.5,8.8C644.5,456.1,633.5,456.9,621.8,456.9z M584.2,445.8
				c5,1.8,17.7,4,37.6,4c19.9,0,32.6-2.2,37.6-4c-5-1.8-17.7-4-37.6-4S589.3,444,584.2,445.8z M661.7,447L661.7,447L661.7,447z"/>
		</g>
		<g>
			<path d="M621.8,441.5c-25.6,0-46.5-19-46.5-42.3s20.9-42.3,46.5-42.3s46.5,19,46.5,42.3S647.4,441.5,621.8,441.5z M621.8,363.9
				c-21.8,0-39.5,15.8-39.5,35.3s17.7,35.3,39.5,35.3s39.5-15.8,39.5-35.3C661.3,379.8,643.6,363.9,621.8,363.9z"/>
		</g>
		<g>
			<path d="M621.8,432.4c-20.1,0-36.4-14.9-36.4-33.2c0-18.3,16.3-33.2,36.4-33.2c20.1,0,36.4,14.9,36.4,33.2
				S641.9,432.4,621.8,432.4z M621.8,373c-16.2,0-29.4,11.8-29.4,26.2c0,14.4,13.2,26.2,29.4,26.2s29.4-11.8,29.4-26.2
				S638,373,621.8,373z"/>
		</g>
		<g>
			<g>
				<path d="M638.4,544.9c-3.3,0-7-1.3-10.4-2.5c-2.3-0.8-4.9-1.7-6.2-1.7s-3.9,0.9-6.2,1.7c-5.8,2-12.3,4.3-16.3,0.2
					c-2.5-2.5-3.9-5.9-3.9-9.5s1.4-7,3.9-9.5l12.7-12.7c2.6-2.6,6.2-4,9.8-3.9c3.7-0.1,7.2,1.3,9.8,3.9l12.7,12.7
					c2.5,2.5,3.9,5.9,3.9,9.5s-1.4,7-3.9,9.5C642.7,544.3,640.7,544.9,638.4,544.9z M621.8,533.7c2.4,0,5.4,1,8.5,2.1
					c2,0.7,8.2,2.8,9.1,1.9c1.2-1.2,1.9-2.8,1.9-4.6c0-1.7-0.7-3.4-1.9-4.6l0,0l-12.7-12.7c-1.3-1.3-3-1.9-4.8-1.9
					c-0.1,0-0.1,0-0.2,0c-1.8,0-3.5,0.6-4.8,1.9l-12.7,12.7c-1.2,1.2-1.9,2.8-1.9,4.6c0,1.7,0.7,3.4,1.9,4.6c0.9,0.9,7-1.2,9.1-1.9
					C616.4,534.7,619.4,533.7,621.8,533.7z"/>
			</g>
			<g>
				<path d="M613.5,510.6c-5.2,0-9.3-5.7-9.3-13.1c0-7.3,4.1-13.1,9.3-13.1s9.3,5.7,9.3,13.1C622.9,504.8,618.8,510.6,613.5,510.6z
					 M613.5,491.4c-0.6,0-2.3,2.2-2.3,6.1s1.8,6.1,2.3,6.1s2.3-2.2,2.3-6.1C615.9,493.6,614.1,491.4,613.5,491.4z"/>
			</g>
			<g>
				<path d="M596.9,520.1c-5.2,0-9.3-5.7-9.3-13.1s4.1-13.1,9.3-13.1s9.3,5.7,9.3,13.1S602.2,520.1,596.9,520.1z M596.9,501
					c-0.6,0-2.3,2.2-2.3,6.1s1.8,6.1,2.3,6.1s2.3-2.2,2.3-6.1C599.3,503.2,597.5,501,596.9,501z"/>
			</g>
			<g>
				<path d="M630.1,510.6c-5.2,0-9.3-5.7-9.3-13.1c0-7.3,4.1-13.1,9.3-13.1s9.3,5.7,9.3,13.1C639.5,504.8,635.3,510.6,630.1,510.6z
					 M630.1,491.4c-0.6,0-2.3,2.2-2.3,6.1s1.8,6.1,2.3,6.1s2.3-2.2,2.3-6.1C632.5,493.6,630.7,491.4,630.1,491.4z"/>
			</g>
			<g>
				<path d="M646.7,520.1c-5.2,0-9.3-5.7-9.3-13.1s4.1-13.1,9.3-13.1s9.3,5.7,9.3,13.1S651.9,520.1,646.7,520.1z M646.7,501
					c-0.6,0-2.3,2.2-2.3,6.1s1.8,6.1,2.3,6.1s2.3-2.2,2.3-6.1S647.3,501,646.7,501z"/>
			</g>
		</g>
	</g>
	<g>
		<g>
			<path d="M489.1,845.7H322.4c-1.1,0-2.1-0.5-2.8-1.4c-0.7-0.9-0.9-2-0.6-3.1l17.6-62.1c0.4-1.5,1.8-2.5,3.4-2.5h131.4
				c1.6,0,2.9,1,3.4,2.5l17.6,62.1c0.3,1.1,0.1,2.2-0.6,3.1C491.2,845.2,490.2,845.7,489.1,845.7z M327.1,838.7h157.4l-15.7-55.1
				H342.7L327.1,838.7z"/>
		</g>
		<g>
			<path d="M495.9,856.9H315.6c-5,0-9.1-4.1-9.1-9.1s4.1-9.1,9.1-9.1h180.3c5,0,9.1,4.1,9.1,9.1C505,852.8,501,856.9,495.9,856.9z
				 M315.6,845.7c-1.1,0-2.1,1-2.1,2.1s1,2.1,2.1,2.1h180.3c1.1,0,2.1-1,2.1-2.1s-1-2.1-2.1-2.1H315.6z"/>
		</g>
		<g>
			<path style="fill:#FFFFFF;" d="M471.4,780.1c0,3.4-29.4,6.1-65.7,6.1s-65.7-2.7-65.7-6.1s29.4-6.1,65.7-6.1
				S471.4,776.7,471.4,780.1z"/>
			<path d="M405.8,789.7c-17.6,0-34.3-0.6-46.8-1.8c-19.1-1.8-22.4-3.9-22.4-7.8c0-3.9,3.4-6,22.4-7.8c12.5-1.2,29.1-1.8,46.8-1.8
				s34.3,0.6,46.8,1.8c19.1,1.8,22.4,3.9,22.4,7.8c0,3.9-3.4,6-22.4,7.8C440,789.1,423.4,789.7,405.8,789.7z M352,780.1
				c10.6,1.4,29.3,2.6,53.8,2.6s43.2-1.2,53.8-2.6c-10.6-1.4-29.3-2.6-53.8-2.6C381.3,777.4,362.5,778.7,352,780.1z M468.9,782.1
				L468.9,782.1L468.9,782.1z"/>
		</g>
	</g>
	<g>
		<g>
			<path d="M669.3,830c-1.5,0-2.8-0.9-3.3-2.3l-39.3-112.2c-0.6-1.8,0.3-3.8,2.1-4.5l37.5-13.1c0.9-0.3,1.8-0.3,2.7,0.1
				c0.8,0.4,1.5,1.1,1.8,2l39.3,112.2c0.5,1.4,0,3-1.2,3.9s-2.8,1-4.1,0.1l-23.6-15.7l-8.6,27C672.2,829,670.8,830,669.3,830
				L669.3,830z M634.5,716.5l34.7,99L676,794c0.3-1,1.1-1.9,2.2-2.2c1-0.4,2.2-0.2,3.1,0.4l18.8,12.5l-34.7-99L634.5,716.5z"/>
		</g>
		<g>
			<path d="M625,830L625,830c-1.6,0-2.9-1-3.3-2.4l-8.6-27l-23.6,15.7c-1.3,0.8-2.9,0.8-4.1-0.1c-1.2-0.9-1.7-2.5-1.2-3.9L623.5,700
				c0.3-0.9,0.9-1.6,1.8-2c0.8-0.4,1.8-0.5,2.7-0.1l37.5,13.1c1.8,0.6,2.8,2.6,2.1,4.5l-39.3,112.2C627.8,829.1,626.5,830,625,830z
				 M615,791.5c0.4,0,0.8,0.1,1.2,0.2c1,0.4,1.8,1.2,2.2,2.2l6.9,21.5l34.7-99l-30.9-10.8l-34.7,99l18.8-12.5
				C613.6,791.7,614.3,791.5,615,791.5z"/>
		</g>
		<g>
			<ellipse style="fill:#FFFFFF;" cx="647.2" cy="718.2" rx="48.1" ry="48.1"/>
			<path d="M647.2,769.8c-28.5,0-51.6-23.2-51.6-51.6c0-28.5,23.2-51.6,51.6-51.6c28.5,0,51.6,23.2,51.6,51.6
				C698.8,746.7,675.6,769.8,647.2,769.8z M647.2,673.5c-24.6,0-44.6,20-44.6,44.6s20,44.6,44.6,44.6s44.6-20,44.6-44.6
				C691.8,693.6,671.8,673.5,647.2,673.5z"/>
		</g>
		<g>
			<ellipse style="fill:#FFFFFF;" cx="647.2" cy="718.2" rx="33.2" ry="33.2"/>
			<path d="M647.2,754.8c-20.2,0-36.7-16.4-36.7-36.7c0-20.2,16.4-36.7,36.7-36.7c20.2,0,36.7,16.4,36.7,36.7
				C683.8,738.4,667.4,754.8,647.2,754.8z M647.2,688.5c-16.4,0-29.7,13.3-29.7,29.7s13.3,29.7,29.7,29.7s29.7-13.3,29.7-29.7
				C676.8,701.8,663.5,688.5,647.2,688.5z"/>
		</g>
	</g>
	<g>
		<g>
			<path d="M482.6,279.6c-0.3,0-0.6,0-0.9-0.1l-165.1-43.3c-1.9-0.5-3-2.4-2.5-4.3l9.6-36.5c0.2-0.9,0.8-1.7,1.6-2.1
				c0.8-0.5,1.8-0.6,2.7-0.4l165,43.2c1.9,0.5,3,2.4,2.5,4.3l-9.6,36.5c-0.2,0.9-0.8,1.7-1.6,2.1
				C483.8,279.4,483.2,279.6,482.6,279.6z M321.7,230.2l158.4,41.6l7.8-29.8l-158.4-41.6L321.7,230.2z"/>
		</g>
		<g>
			
				<rect x="342.9" y="220.2" transform="matrix(0.2539 -0.9672 0.9672 0.2539 55.9549 525.7272)" style="fill:#FFFFFF;" width="51.8" height="12.7"/>
			<path d="M368.3,256.8c-0.3,0-0.6,0-0.9-0.1l-12.2-3.2c-0.9-0.2-1.7-0.8-2.1-1.6c-0.5-0.8-0.6-1.8-0.4-2.7l13.2-50.1
				c0.5-1.9,2.4-3,4.3-2.5l12.2,3.2c0.9,0.2,1.7,0.8,2.1,1.6c0.5,0.8,0.6,1.8,0.4,2.7l-13.2,50.1
				C371.3,255.8,369.9,256.8,368.3,256.8z M360.3,247.6l5.5,1.4l11.4-43.4l-5.5-1.4L360.3,247.6z"/>
		</g>
		<g>
			<path style="fill:#FFFFFF;" d="M395.9,233.8c0.5-1.8-0.6-3.6-2.4-4c-1.8-0.5-3.6,0.6-4,2.4c-0.5,1.8,0.6,3.6,2.4,4
				C393.6,236.6,395.4,235.5,395.9,233.8z"/>
			<path d="M392.7,239.7c-0.6,0-1.2-0.1-1.7-0.2c-3.6-1-5.8-4.7-4.9-8.3c1-3.6,4.7-5.8,8.3-4.9c3.6,1,5.8,4.7,4.9,8.3l0,0
				C398.4,237.7,395.7,239.7,392.7,239.7z M395.9,233.8L395.9,233.8L395.9,233.8z M392.5,232.9c0,0.1,0,0.2,0.1,0.2s0.2,0,0.2-0.1
				L392.5,232.9z M392.7,232.7c-0.1,0-0.2,0.1-0.2,0.1l0.4,0.1l0,0C392.9,232.9,392.8,232.8,392.7,232.7
				C392.7,232.8,392.7,232.7,392.7,232.7z"/>
		</g>
		<g>
			<path style="fill:#FFFFFF;" d="M414.1,238.6c0.5-1.8-0.6-3.6-2.4-4c-1.8-0.5-3.6,0.6-4,2.4c-0.5,1.8,0.6,3.6,2.4,4
				C411.8,241.4,413.6,240.3,414.1,238.6z"/>
			<path d="M410.9,244.5c-0.6,0-1.2-0.1-1.7-0.2c-3.6-1-5.8-4.7-4.9-8.3c1-3.6,4.7-5.8,8.3-4.9c3.6,1,5.8,4.7,4.9,8.3
				C416.7,242.5,413.9,244.5,410.9,244.5z M410.9,237.5c-0.1,0-0.2,0.1-0.2,0.1c0,0.1,0,0.2,0.1,0.2s0.2,0,0.2-0.1
				C411.1,237.7,411.1,237.6,410.9,237.5L410.9,237.5z"/>
		</g>
		<g>
			<path style="fill:#FFFFFF;" d="M432.4,243.4c0.5-1.8-0.6-3.6-2.4-4c-1.8-0.5-3.6,0.6-4,2.4c-0.5,1.8,0.6,3.6,2.4,4
				C430.1,246.2,431.9,245.1,432.4,243.4z"/>
			<path d="M429.2,249.3c-0.6,0-1.2-0.1-1.7-0.2c-3.6-1-5.8-4.7-4.9-8.3c1-3.6,4.7-5.8,8.3-4.9c3.6,1,5.8,4.7,4.9,8.3
				C434.9,247.3,432.2,249.3,429.2,249.3z M429.2,242.3c-0.1,0-0.2,0.1-0.2,0.1c0,0.1,0,0.2,0.1,0.2s0.2,0,0.2-0.1
				C429.4,242.5,429.3,242.4,429.2,242.3L429.2,242.3z"/>
		</g>
	</g>
	<g>
		<g>
			<path d="M697.7,250.4H587.8c-1.9,0-3.5-1.6-3.5-3.5v-34c0-1.9,1.6-3.5,3.5-3.5h109.8c1.9,0,3.5,1.6,3.5,3.5v34
				C701.2,248.8,699.6,250.4,697.7,250.4z M591.3,243.4h102.8v-27H591.3V243.4z"/>
		</g>
		<g>
			<path d="M688.8,258.4h-92.1c-1.9,0-3.5-1.6-3.5-3.5v-8c0-1.9,1.6-3.5,3.5-3.5h92.1c1.9,0,3.5,1.6,3.5,3.5v8
				C692.3,256.8,690.7,258.4,688.8,258.4z M600.2,251.4h85.1v-1h-85.1V251.4z"/>
		</g>
		<g>
			<path d="M697.7,216.4H587.8c-1.9,0-3.5-1.6-3.5-3.5v-77.8c0-32.2,26.2-58.4,58.4-58.4s58.4,26.2,58.4,58.4v77.8
				C701.2,214.8,699.6,216.4,697.7,216.4z M591.3,209.4h102.8v-74.3c0-28.3-23.1-51.4-51.4-51.4c-28.3,0-51.4,23.1-51.4,51.4
				L591.3,209.4L591.3,209.4z"/>
		</g>
		<g>
			<path d="M677.2,216.4h-69c-1.9,0-3.5-1.6-3.5-3.5v-77.8c0-32.2,17-58.4,38-58.4c20.9,0,38,26.2,38,58.4v77.8
				C680.7,214.8,679.2,216.4,677.2,216.4z M611.7,209.4h62v-74.3c0-27.9-14.2-51.4-31-51.4s-31,23.5-31,51.4V209.4z"/>
		</g>
		<g>
			<path d="M657.2,216.4h-29c-1.9,0-3.5-1.6-3.5-3.5v-77.8c0-14.9,1.6-29,4.4-39.7c3.3-12.4,7.9-18.7,13.6-18.7
				c5.8,0,10.3,6.3,13.6,18.7c2.8,10.7,4.4,24.8,4.4,39.7v77.8C660.7,214.8,659.2,216.4,657.2,216.4z M631.7,209.4h22v-74.3
				c0-33.9-7.7-51.4-11-51.4c-0.7,0-3.9,2.3-6.9,13.5c-2.7,10.1-4.1,23.6-4.1,37.9V209.4z"/>
		</g>
		<g>
			<path d="M642.7,83.7c-10.1,0-18.3-8.2-18.3-18.3s8.2-18.3,18.3-18.3S661,55.3,661,65.4C661.1,75.4,652.8,83.7,642.7,83.7z
				 M642.7,54c-6.2,0-11.3,5.1-11.3,11.3c0,6.2,5.1,11.3,11.3,11.3S654,71.5,654,65.3C654.1,59.1,649,54,642.7,54z"/>
		</g>
	</g>
	<g>
		<g>
			<path d="M892,572.3h-82c-1.8,0-3.3-1.3-3.5-3.1l-10-86.5c-0.1-1.1,0.3-2.1,1-2.9l51-50.3c1.4-1.3,3.6-1.3,4.9,0l51,50.3
				c0.8,0.8,1.1,1.8,1,2.9l-10,86.5C895.3,570.9,893.8,572.3,892,572.3z M813.1,565.3h75.8l9.4-81.7L851,436.8l-47.3,46.7
				L813.1,565.3z"/>
		</g>
		<g>
			<path d="M905.1,589.4H796.9c-1.9,0-3.5-1.6-3.5-3.5v-17.1c0-1.9,1.6-3.5,3.5-3.5H905c1.9,0,3.5,1.6,3.5,3.5v17.1
				C908.6,587.8,907,589.4,905.1,589.4z M800.4,582.4h101.1v-10.1H800.4V582.4z"/>
		</g>
		<g>
			<path d="M851,527.9c-15.2,0-27.5-12.3-27.5-27.5s12.3-27.5,27.5-27.5s27.5,12.3,27.5,27.5S866.2,527.9,851,527.9z M851,479.8
				c-11.3,0-20.5,9.2-20.5,20.5s9.2,20.5,20.5,20.5s20.5-9.2,20.5-20.5S862.3,479.8,851,479.8z"/>
		</g>
		<g>
			<path d="M851,555.6c-4.9,0-8.9-4-8.9-8.9s4-8.9,8.9-8.9s8.9,4,8.9,8.9S855.9,555.6,851,555.6z M851,544.9c-1,0-1.9,0.8-1.9,1.9
				s0.8,1.9,1.9,1.9c1,0,1.9-0.8,1.9-1.9S852,544.9,851,544.9z"/>
		</g>
		<g>
			<path d="M922,504.8c-0.9,0-1.8-0.3-2.4-1L851,437.2l-68.5,65.6c-1.4,1.3-3.5,1.3-4.9-0.1l-9.1-9.1c-0.7-0.7-1-1.6-1-2.5
				s0.4-1.8,1.1-2.5l80.1-77.1c0.9-0.8,2-1.1,3.1-0.9c0.7,0.1,1.3,0.4,1.8,0.9l80.1,78.1c0.7,0.7,1.1,1.5,1.1,2.5
				c0,0.9-0.4,1.8-1,2.5l-9.1,9.1C923.8,504.5,922.9,504.8,922,504.8z M851,428.8c0.9,0,1.8,0.3,2.4,1l68.5,66.6l4.2-4.2L851,419
				l-75.1,72.3l4.2,4.2l68.5-65.6C849.3,429.2,850.1,428.8,851,428.8z"/>
		</g>
	</g>
	<g>
		<g>
			<path d="M154.5,176.7c-22.7,0-40.1-3.8-48.4-6c-22.3-6-22.3-11.5-22.3-13.3v-67c0-1.9,1.6-3.5,3.5-3.5h134.3
				c1.9,0,3.5,1.6,3.5,3.5v67c0,7.3-16.8,11.8-22.3,13.3C194.6,172.9,177.2,176.7,154.5,176.7z M90.8,156.8
				c3.1,3.6,28.2,12.9,63.7,12.9s60.5-9.3,63.7-12.9v-63H90.8V156.8z"/>
		</g>
		<g>
			<ellipse style="fill:#FFFFFF;" cx="154.5" cy="90.3" rx="67.2" ry="14.2"/>
			<path d="M154.5,108.1c-26.2,0-70.7-3.7-70.7-17.7s44.4-17.7,70.7-17.7s70.7,3.7,70.7,17.7C225.1,104.4,180.7,108.1,154.5,108.1z
				 M90.8,90.3c0.5,1,4.7,4.2,18.4,7c12.3,2.4,28.3,3.8,45.3,3.8s33-1.3,45.3-3.8c13.7-2.7,17.9-5.9,18.4-7c-0.5-1-4.7-4.2-18.4-7
				c-12.3-2.4-28.3-3.8-45.3-3.8s-33,1.3-45.3,3.8C95.5,86.1,91.3,89.3,90.8,90.3z M218.2,90.4L218.2,90.4L218.2,90.4z"/>
		</g>
		<g>
			<ellipse style="fill:#FFFFFF;" cx="154.5" cy="90.3" rx="48.5" ry="5.3"/>
			<path d="M154.5,99.1c-13.1,0-25.4-0.6-34.7-1.6c-13.1-1.4-17.3-3.2-17.3-7.2s4.2-5.8,17.3-7.2c9.3-1,21.6-1.6,34.7-1.6
				c13.1,0,25.4,0.6,34.7,1.6c13.1,1.4,17.3,3.2,17.3,7.2s-4.2,5.8-17.3,7.2C179.9,98.5,167.6,99.1,154.5,99.1z M200.4,92.4
				L200.4,92.4L200.4,92.4z M118.5,90.3c8.1,1,20.5,1.8,36,1.8s27.9-0.8,36-1.8c-8.1-1-20.5-1.8-36-1.8S126.6,89.4,118.5,90.3z"/>
		</g>
		<g>
			<g>
				<path d="M161.3,155.2c-16.9,0-30.1-14.1-30.7-14.7c-1.2-1.3-1.2-3.4,0-4.8c0.6-0.6,13.8-14.7,30.7-14.7s30.1,14.1,30.7,14.7
					c1.2,1.3,1.2,3.4,0,4.8C191.4,141.1,178.2,155.2,161.3,155.2z M138.3,138.1c4.2,3.6,13,10.1,23,10.1s18.8-6.5,23-10.1
					c-4.2-3.6-13-10.1-23-10.1C151.4,128,142.5,134.5,138.3,138.1z"/>
			</g>
			<g>
				<path d="M119.5,153.1c-0.9,0-1.7-0.3-2.4-1c-1.3-1.2-1.4-3.2-0.3-4.7l7.2-9.4l-7.2-9.4c-1.1-1.4-0.9-3.4,0.3-4.7
					c1.3-1.2,3.3-1.3,4.7-0.2l13.7,11.5c0.8,0.7,1.2,1.6,1.2,2.7c0,1-0.5,2-1.2,2.7l-13.7,11.5C121.1,152.8,120.3,153.1,119.5,153.1
					z"/>
			</g>
		</g>
	</g>
	<g>
		<g>
			<path d="M828.3,885.5c-3.4,0-6.4-0.9-8.6-3.1c-8.3-8.3-8.3-21.8,0-30.1l22.7-22.7c4.1-4.1,9.7-6.3,15.6-6.2
				c5.8-0.1,11.5,2.1,15.6,6.2l22.7,22.7c4,4,6.2,9.4,6.2,15.1c0,5.7-2.2,11.1-6.2,15.1c-5.9,5.9-16.7,2.2-26.3-1.1
				c-4.5-1.6-9.3-3.2-12-3.2s-7.4,1.6-12,3.2C840.1,883.3,833.7,885.5,828.3,885.5z M857.4,830.3c-3.8,0-7.4,1.5-10.1,4.2
				l-22.7,22.7c-5.6,5.6-5.6,14.7,0,20.2c2.8,2.8,12.2-0.4,19-2.8c5.3-1.8,10.4-3.6,14.3-3.6s8.9,1.7,14.3,3.6
				c6.8,2.4,16.2,5.6,19,2.8c2.7-2.7,4.2-6.3,4.2-10.1s-1.5-7.4-4.2-10.1l0,0l-22.7-22.7c-2.8-2.8-6.5-4.3-10.5-4.1
				c-0.1,0-0.1,0-0.2,0C857.7,830.3,857.5,830.3,857.4,830.3z"/>
		</g>
		<g>
			<path d="M843.1,824.2c-7.8,0-13.9-9-13.9-20.6c0-11.5,6.1-20.6,13.9-20.6s13.9,9,13.9,20.6S850.9,824.2,843.1,824.2z M843.1,790
				c-3.3,0-6.9,5.8-6.9,13.6s3.7,13.6,6.9,13.6c3.3,0,6.9-5.8,6.9-13.6C850,795.9,846.4,790,843.1,790z"/>
		</g>
		<g>
			<path d="M813.5,841.3c-7.8,0-13.9-9-13.9-20.6c0-11.5,6.1-20.6,13.9-20.6c7.8,0,13.9,9,13.9,20.6S821.3,841.3,813.5,841.3z
				 M813.5,807.1c-3.3,0-6.9,5.8-6.9,13.6s3.7,13.6,6.9,13.6c3.3,0,6.9-5.8,6.9-13.6S816.8,807.1,813.5,807.1z"/>
		</g>
		<g>
			<path d="M872.8,824.2c-7.8,0-13.9-9-13.9-20.6c0-11.5,6.1-20.6,13.9-20.6c7.8,0,13.9,9,13.9,20.6S880.6,824.2,872.8,824.2z
				 M872.8,790c-3.3,0-6.9,5.8-6.9,13.6s3.7,13.6,6.9,13.6c3.3,0,6.9-5.8,6.9-13.6C879.7,795.9,876,790,872.8,790z"/>
		</g>
		<g>
			<path d="M902.4,841.3c-7.8,0-13.9-9-13.9-20.6c0-11.5,6.1-20.6,13.9-20.6s13.9,9,13.9,20.6C916.3,832.3,910.2,841.3,902.4,841.3z
				 M902.4,807.1c-3.3,0-6.9,5.8-6.9,13.6s3.7,13.6,6.9,13.6c3.3,0,6.9-5.8,6.9-13.6S905.7,807.1,902.4,807.1z"/>
		</g>
	</g>
	<g>
		<path d="M789.2,299c-9.6,0-18.7-6-22.1-15.5c-1.9-5.3-1.9-11,0.1-16.2c-4.8-2.8-8.5-7.1-10.4-12.4c-2.1-5.9-1.9-12.3,0.8-18
			s7.4-10,13.3-12.1c5.9-2.1,12.3-1.9,18,0.8s10,7.4,12.1,13.3c0.2,0.5,0.3,0.9,0.5,1.4l86.4-31.3c-0.2-0.4-0.4-0.9-0.5-1.3
			c-2.1-5.9-1.9-12.3,0.8-18s7.4-10,13.3-12.1c12.2-4.4,25.7,1.9,30.1,14.1c1.9,5.3,1.9,11-0.1,16.2c4.8,2.8,8.5,7.1,10.4,12.4
			c4.4,12.2-1.9,25.7-14.1,30.1c-5.9,2.1-12.3,1.9-18-0.8s-10-7.4-12.1-13.3c-0.2-0.5-0.3-0.9-0.5-1.4l-86.4,31.3
			c0.2,0.4,0.4,0.9,0.5,1.3c4.4,12.2-1.9,25.7-14.1,30.1C794.6,298.5,791.9,299,789.2,299z M778.9,230.4c-1.9,0-3.8,0.3-5.6,1
			c-4.2,1.5-7.5,4.5-9.3,8.5c-1.9,4-2.1,8.5-0.6,12.6c1.6,4.5,5.2,8.1,9.7,9.8c1,0.4,1.7,1.1,2,2.1s0.3,2-0.2,2.9
			c-2.4,4.2-2.8,9.2-1.1,13.7c3.1,8.6,12.6,13,21.2,9.9c8.6-3.1,13-12.6,9.9-21.2c-0.5-1.3-1.1-2.5-1.9-3.7c-0.6-0.9-0.8-2-0.4-3
			c0.3-1,1.1-1.8,2.1-2.2l94.1-34.1c1-0.4,2.1-0.2,3.1,0.3c0.9,0.6,1.5,1.5,1.6,2.6c0.1,1.4,0.4,2.7,0.9,4c1.5,4.2,4.5,7.5,8.5,9.3
			c4,1.9,8.5,2.1,12.6,0.6c8.6-3.1,13-12.6,9.9-21.2c-1.6-4.5-5.2-8.1-9.7-9.8c-1-0.4-1.7-1.1-2-2.1s-0.3-2,0.2-2.9
			c2.4-4.2,2.8-9.2,1.1-13.7c-3.1-8.6-12.6-13-21.2-9.9c-4.2,1.5-7.5,4.5-9.3,8.5c-1.9,4-2.1,8.5-0.6,12.6c0.5,1.3,1.1,2.5,1.9,3.7
			c0.6,0.9,0.8,2,0.4,3c-0.3,1-1.1,1.8-2.1,2.2L800,248.3c-1,0.4-2.1,0.2-3.1-0.3c-0.9-0.6-1.5-1.5-1.6-2.6c-0.1-1.4-0.4-2.7-0.9-4
			c-1.5-4.2-4.5-7.5-8.5-9.3C783.6,230.9,781.3,230.4,778.9,230.4z"/>
	</g>
	<g>
		<g>
			<path d="M196.9,810.1H89.8c-1.9,0-3.5-1.6-3.5-3.5V659.3c0-1.9,1.6-3.5,3.5-3.5h107.1c1.9,0,3.5,1.6,3.5,3.5v147.2
				C200.4,808.5,198.8,810.1,196.9,810.1z M93.3,803.1h100.1V662.8H93.3V803.1z"/>
		</g>
		<g>
			<path d="M197.7,687.3H89.8c-1.9,0-3.5-1.6-3.5-3.5v-24.4c0-1.9,1.6-3.5,3.5-3.5h107.9c1.9,0,3.5,1.6,3.5,3.5v24.4
				C201.2,685.7,199.6,687.3,197.7,687.3z M93.3,680.3h100.9v-17.4H93.3V680.3z"/>
		</g>
		<g>
			<path d="M97.8,687.3c-1.9,0-3.5-1.6-3.5-3.5v-24.4c0-1.9,1.6-3.5,3.5-3.5s3.5,1.6,3.5,3.5v24.4
				C101.3,685.7,99.7,687.3,97.8,687.3z"/>
		</g>
		<g>
			<path d="M109.2,687.3c-1.9,0-3.5-1.6-3.5-3.5v-24.4c0-1.9,1.6-3.5,3.5-3.5s3.5,1.6,3.5,3.5v24.4
				C112.7,685.7,111.1,687.3,109.2,687.3z"/>
		</g>
		<g>
			<path d="M120.6,687.3c-1.9,0-3.5-1.6-3.5-3.5v-24.4c0-1.9,1.6-3.5,3.5-3.5s3.5,1.6,3.5,3.5v24.4
				C124.1,685.7,122.5,687.3,120.6,687.3z"/>
		</g>
		<g>
			<path d="M131.9,687.3c-1.9,0-3.5-1.6-3.5-3.5v-24.4c0-1.9,1.6-3.5,3.5-3.5s3.5,1.6,3.5,3.5v24.4
				C135.4,685.7,133.9,687.3,131.9,687.3z"/>
		</g>
		<g>
			<path d="M143.3,687.3c-1.9,0-3.5-1.6-3.5-3.5v-24.4c0-1.9,1.6-3.5,3.5-3.5s3.5,1.6,3.5,3.5v24.4
				C146.8,685.7,145.3,687.3,143.3,687.3z"/>
		</g>
		<g>
			<path d="M154.7,687.3c-1.9,0-3.5-1.6-3.5-3.5v-24.4c0-1.9,1.6-3.5,3.5-3.5s3.5,1.6,3.5,3.5v24.4
				C158.2,685.7,156.6,687.3,154.7,687.3z"/>
		</g>
		<g>
			<path d="M166.1,687.3c-1.9,0-3.5-1.6-3.5-3.5v-24.4c0-1.9,1.6-3.5,3.5-3.5s3.5,1.6,3.5,3.5v24.4
				C169.6,685.7,168,687.3,166.1,687.3z"/>
		</g>
		<g>
			<path d="M177.5,687.3c-1.9,0-3.5-1.6-3.5-3.5v-24.4c0-1.9,1.6-3.5,3.5-3.5s3.5,1.6,3.5,3.5v24.4
				C181,685.7,179.4,687.3,177.5,687.3z"/>
		</g>
		<g>
			<path d="M188.8,687.3c-1.9,0-3.5-1.6-3.5-3.5v-24.4c0-1.9,1.6-3.5,3.5-3.5s3.5,1.6,3.5,3.5v24.4
				C192.3,685.7,190.8,687.3,188.8,687.3z"/>
		</g>
		<g>
			<path d="M143.3,778.2c-17.4,0-31.6-14.2-31.6-31.6s14.2-31.6,31.6-31.6s31.6,14.2,31.6,31.6S160.7,778.2,143.3,778.2z M143.3,722
				c-13.6,0-24.6,11-24.6,24.6s11,24.6,24.6,24.6c13.6,0,24.6-11,24.6-24.6C167.9,733,156.9,722,143.3,722z"/>
		</g>
	</g>
	<g>
		<g>
			<path d="M224,408.7H68.5c-8.3,0-15.1-6.8-15.1-15.1c0-8.3,6.8-15.1,15.1-15.1H224c8.3,0,15.1,6.8,15.1,15.1
				C239.1,401.9,232.3,408.7,224,408.7z M68.5,385.4c-4.5,0-8.1,3.7-8.1,8.1c0,4.5,3.7,8.1,8.1,8.1H224c4.5,0,8.1-3.7,8.1-8.1
				c0-4.5-3.7-8.1-8.1-8.1H68.5z"/>
		</g>
		<g>
			<path d="M221.3,385.4H71.1c-1,0-2-0.5-2.7-1.3s-0.9-1.9-0.7-2.9l8.7-46c0.2-8.8,9.7-15.6,21.6-15.6h96.4c12,0,21.4,6.8,21.6,15.6
				l8.7,46c0.2,1-0.1,2.1-0.7,2.9C223.4,384.9,222.4,385.4,221.3,385.4z M75.3,378.4h141.8l-8-42.1c0-0.2-0.1-0.4-0.1-0.7
				c0-4.9-6.7-8.9-14.6-8.9H98c-7.9,0-14.6,4.1-14.6,8.9c0,0.2,0,0.4-0.1,0.7L75.3,378.4z"/>
		</g>
		<g>
			<path d="M194.4,467.4H98c-12,0-21.4-6.8-21.6-15.6l-8.7-46c-0.2-1,0.1-2.1,0.7-2.9c0.7-0.8,1.7-1.3,2.7-1.3h150.2
				c1,0,2,0.5,2.7,1.3s0.9,1.9,0.7,2.9l-8.7,46C215.8,460.6,206.4,467.4,194.4,467.4z M75.3,408.7l8,42.1c0,0.2,0.1,0.4,0.1,0.7
				c0,4.9,6.7,8.9,14.6,8.9h96.4c7.9,0,14.6-4.1,14.6-8.9c0-0.2,0-0.4,0.1-0.7l8-42.1H75.3z"/>
		</g>
		<g>
			<rect x="88.2" y="373.9" style="fill:#FFFFFF;" width="18.2" height="39.3"/>
			<path d="M106.4,416.7H88.2c-1.9,0-3.5-1.6-3.5-3.5v-39.3c0-1.9,1.6-3.5,3.5-3.5h18.2c1.9,0,3.5,1.6,3.5,3.5v39.3
				C109.9,415.2,108.3,416.7,106.4,416.7z M91.7,409.7h11.2v-32.3H91.7V409.7z"/>
		</g>
		<g>
			<rect x="185.2" y="373.9" style="fill:#FFFFFF;" width="18.2" height="39.3"/>
			<path d="M203.4,416.7h-18.2c-1.9,0-3.5-1.6-3.5-3.5v-39.3c0-1.9,1.6-3.5,3.5-3.5h18.2c1.9,0,3.5,1.6,3.5,3.5v39.3
				C206.9,415.2,205.3,416.7,203.4,416.7z M188.7,409.7h11.2v-32.3h-11.2V409.7z"/>
		</g>
		<g>
			<path d="M106.1,367.8c-1.9,0-3.5-1.6-3.5-3.5v-30.1c0-1.9,1.6-3.5,3.5-3.5s3.5,1.6,3.5,3.5v30.1
				C109.6,366.2,108.1,367.8,106.1,367.8z"/>
		</g>
		<g>
			<path d="M126.2,367.8c-1.9,0-3.5-1.6-3.5-3.5v-30.1c0-1.9,1.6-3.5,3.5-3.5c1.9,0,3.5,1.6,3.5,3.5v30.1
				C129.7,366.2,128.1,367.8,126.2,367.8z"/>
		</g>
		<g>
			<path d="M146.2,367.8c-1.9,0-3.5-1.6-3.5-3.5v-30.1c0-1.9,1.6-3.5,3.5-3.5s3.5,1.6,3.5,3.5v30.1
				C149.7,366.2,148.2,367.8,146.2,367.8z"/>
		</g>
		<g>
			<path d="M166.3,367.8c-1.9,0-3.5-1.6-3.5-3.5v-30.1c0-1.9,1.6-3.5,3.5-3.5s3.5,1.6,3.5,3.5v30.1
				C169.8,366.2,168.2,367.8,166.3,367.8z"/>
		</g>
		<g>
			<path d="M186.3,367.8c-1.9,0-3.5-1.6-3.5-3.5v-30.1c0-1.9,1.6-3.5,3.5-3.5s3.5,1.6,3.5,3.5v30.1
				C189.8,366.2,188.2,367.8,186.3,367.8z"/>
		</g>
		<g>
			<path d="M106.1,456.4c-1.9,0-3.5-1.6-3.5-3.5v-30.1c0-1.9,1.6-3.5,3.5-3.5s3.5,1.6,3.5,3.5v30.1
				C109.6,454.8,108.1,456.4,106.1,456.4z"/>
		</g>
		<g>
			<path d="M126.2,456.4c-1.9,0-3.5-1.6-3.5-3.5v-30.1c0-1.9,1.6-3.5,3.5-3.5c1.9,0,3.5,1.6,3.5,3.5v30.1
				C129.7,454.8,128.1,456.4,126.2,456.4z"/>
		</g>
		<g>
			<path d="M146.2,456.4c-1.9,0-3.5-1.6-3.5-3.5v-30.1c0-1.9,1.6-3.5,3.5-3.5s3.5,1.6,3.5,3.5v30.1
				C149.7,454.8,148.2,456.4,146.2,456.4z"/>
		</g>
		<g>
			<path d="M166.3,456.4c-1.9,0-3.5-1.6-3.5-3.5v-30.1c0-1.9,1.6-3.5,3.5-3.5s3.5,1.6,3.5,3.5v30.1
				C169.8,454.8,168.2,456.4,166.3,456.4z"/>
		</g>
		<g>
			<path d="M186.3,456.4c-1.9,0-3.5-1.6-3.5-3.5v-30.1c0-1.9,1.6-3.5,3.5-3.5s3.5,1.6,3.5,3.5v30.1
				C189.8,454.8,188.2,456.4,186.3,456.4z"/>
		</g>
		<g>
			<path d="M174.1,325.9h-55.8c-1.9,0-3.5-1.6-3.5-3.5v-10.8c0-7,5.7-12.6,12.6-12.6H165c7,0,12.6,5.7,12.6,12.6v10.8
				C177.6,324.4,176,325.9,174.1,325.9z M121.8,318.9h48.8v-7.3c0-3.1-2.5-5.6-5.6-5.6h-37.5c-3.1,0-5.6,2.5-5.6,5.6L121.8,318.9
				L121.8,318.9z"/>
		</g>
	</g>
</g>
</svg>
